<svg xmlns="http://www.w3.org/2000/svg" xmlns:xlink="http://www.w3.org/1999/xlink" width="1080" zoomAndPan="magnify" viewBox="0 0 810 809.999993" height="1080" preserveAspectRatio="xMidYMid meet" version="1.0"><defs><g/></defs><g fill="#d9d9d9" fill-opacity="1"><g transform="translate(78.986505, 447.545448)"><g><path d="M 24.25 -112.921875 L 52.703125 -112.921875 L 73.75 0 L 50.75 0 L 46.984375 -23.84375 L 30.390625 -23.84375 L 26.484375 0 L 2.921875 0 Z M 44.609375 -38.75 L 38.609375 -82.8125 L 32.625 -38.75 Z M 44.609375 -38.75 "/></g></g></g><g fill="#d9d9d9" fill-opacity="1"><g transform="translate(155.799326, 447.545448)"><g><path d="M 8.359375 -112.921875 L 36.9375 -112.921875 C 46.695312 -112.921875 54.316406 -111.710938 59.796875 -109.296875 C 65.285156 -106.878906 69.164062 -103.09375 71.4375 -97.9375 C 73.71875 -92.78125 74.859375 -85.878906 74.859375 -77.234375 L 74.859375 -36.25 C 74.859375 -27.507812 73.71875 -20.535156 71.4375 -15.328125 C 69.164062 -10.128906 65.3125 -6.273438 59.875 -3.765625 C 54.4375 -1.253906 46.882812 0 37.21875 0 L 8.359375 0 Z M 37.21875 -17.28125 C 40.84375 -17.28125 43.515625 -17.816406 45.234375 -18.890625 C 46.953125 -19.960938 48.039062 -21.492188 48.5 -23.484375 C 48.96875 -25.484375 49.203125 -28.4375 49.203125 -32.34375 L 49.203125 -81.546875 C 49.203125 -85.171875 48.945312 -87.9375 48.4375 -89.84375 C 47.925781 -91.75 46.8125 -93.164062 45.09375 -94.09375 C 43.375 -95.03125 40.703125 -95.5 37.078125 -95.5 L 33.3125 -95.5 L 33.3125 -17.28125 Z M 37.21875 -17.28125 "/></g></g></g><g fill="#d9d9d9" fill-opacity="1"><g transform="translate(237.491357, 447.545448)"><g><path d="M 8.5 -112.921875 L 33.453125 -112.921875 L 33.453125 0 L 8.5 0 Z M 8.5 -112.921875 "/></g></g></g><g fill="#d9d9d9" fill-opacity="1"><g transform="translate(279.452628, 447.545448)"><g><path d="M 9.890625 -112.921875 L 36.65625 -112.921875 L 49.078125 -47.265625 L 62.453125 -112.921875 L 88.25 -112.921875 L 90.203125 0 L 72.484375 0 L 70.40625 -75.140625 L 57.296875 0 L 41.546875 0 L 27.609375 -75.703125 L 25.921875 0 L 7.953125 0 Z M 9.890625 -112.921875 "/></g></g></g><g fill="#d9d9d9" fill-opacity="1"><g transform="translate(377.594591, 447.545448)"><g><path d="M 8.359375 -112.921875 L 59.109375 -112.921875 L 59.109375 -95.90625 L 33.3125 -95.90625 L 33.3125 -67.890625 L 52.96875 -67.890625 L 52.96875 -50.609375 L 33.3125 -50.609375 L 33.3125 -16.875 L 59.390625 -16.875 L 59.390625 0 L 8.359375 0 Z M 8.359375 -112.921875 "/></g></g></g><g fill="#d9d9d9" fill-opacity="1"><g transform="translate(439.909155, 447.545448)"><g><path d="M 8.359375 -112.921875 L 36.9375 -112.921875 C 46.695312 -112.921875 54.316406 -111.710938 59.796875 -109.296875 C 65.285156 -106.878906 69.164062 -103.09375 71.4375 -97.9375 C 73.71875 -92.78125 74.859375 -85.878906 74.859375 -77.234375 L 74.859375 -36.25 C 74.859375 -27.507812 73.71875 -20.535156 71.4375 -15.328125 C 69.164062 -10.128906 65.3125 -6.273438 59.875 -3.765625 C 54.4375 -1.253906 46.882812 0 37.21875 0 L 8.359375 0 Z M 37.21875 -17.28125 C 40.84375 -17.28125 43.515625 -17.816406 45.234375 -18.890625 C 46.953125 -19.960938 48.039062 -21.492188 48.5 -23.484375 C 48.96875 -25.484375 49.203125 -28.4375 49.203125 -32.34375 L 49.203125 -81.546875 C 49.203125 -85.171875 48.945312 -87.9375 48.4375 -89.84375 C 47.925781 -91.75 46.8125 -93.164062 45.09375 -94.09375 C 43.375 -95.03125 40.703125 -95.5 37.078125 -95.5 L 33.3125 -95.5 L 33.3125 -17.28125 Z M 37.21875 -17.28125 "/></g></g></g><g fill="#d9d9d9" fill-opacity="1"><g transform="translate(521.601198, 447.545448)"><g><path d="M 8.5 -112.921875 L 33.453125 -112.921875 L 33.453125 0 L 8.5 0 Z M 8.5 -112.921875 "/></g></g></g><g fill="#d9d9d9" fill-opacity="1"><g transform="translate(563.562469, 447.545448)"><g><path d="M 24.25 -112.921875 L 52.703125 -112.921875 L 73.75 0 L 50.75 0 L 46.984375 -23.84375 L 30.390625 -23.84375 L 26.484375 0 L 2.921875 0 Z M 44.609375 -38.75 L 38.609375 -82.8125 L 32.625 -38.75 Z M 44.609375 -38.75 "/></g></g></g><g fill="#a055ff" fill-opacity="1"><g transform="translate(640.384915, 447.545448)"><g><path d="M 22.859375 -60.78125 L 1.953125 -112.921875 L 25.515625 -112.921875 L 37.921875 -82.390625 L 47.953125 -112.921875 L 68.734375 -112.921875 L 48.9375 -54.234375 L 70.953125 0 L 47.53125 0 L 33.734375 -33.734375 L 21.609375 0 L 0.96875 0 Z M 22.859375 -60.78125 "/></g></g></g></svg>