<svg xmlns="http://www.w3.org/2000/svg" xmlns:xlink="http://www.w3.org/1999/xlink" width="1080" zoomAndPan="magnify" viewBox="0 0 810 809.999993" height="1080" preserveAspectRatio="xMidYMid meet" version="1.0"><defs><g/><clipPath id="eb1a6bb5b4"><path d="M 1.691406 13.914062 L 794 13.914062 L 794 796.085938 L 1.691406 796.085938 Z M 1.691406 13.914062 " clip-rule="nonzero"/></clipPath><clipPath id="c300b85d42"><path d="M 397.988281 13.914062 C 179.117188 13.914062 1.691406 189.007812 1.691406 405 C 1.691406 620.992188 179.117188 796.085938 397.988281 796.085938 C 616.855469 796.085938 794.285156 620.992188 794.285156 405 C 794.285156 189.007812 616.855469 13.914062 397.988281 13.914062 Z M 397.988281 13.914062 " clip-rule="nonzero"/></clipPath></defs><g clip-path="url(#eb1a6bb5b4)"><g clip-path="url(#c300b85d42)"><path fill="#000000" d="M 1.691406 13.914062 L 793.03125 13.914062 L 793.03125 796.085938 L 1.691406 796.085938 Z M 1.691406 13.914062 " fill-opacity="1" fill-rule="nonzero"/></g></g><g fill="#d9d9d9" fill-opacity="1"><g transform="translate(102.757425, 541.9306)"><g><path d="M 56.796875 -264.390625 L 123.375 -264.390625 L 172.671875 0 L 118.8125 0 L 110 -55.8125 L 71.15625 -55.8125 L 62.015625 0 L 6.859375 0 Z M 104.453125 -90.734375 L 90.421875 -193.890625 L 76.375 -90.734375 Z M 104.453125 -90.734375 "/></g></g></g><g fill="#d9d9d9" fill-opacity="1"><g transform="translate(282.601606, 541.9306)"><g><path d="M 23.171875 -264.390625 L 85.84375 -264.390625 L 114.890625 -110.65625 L 146.234375 -264.390625 L 206.609375 -264.390625 L 211.1875 0 L 169.734375 0 L 164.828125 -175.9375 L 134.15625 0 L 97.265625 0 L 64.625 -177.234375 L 60.71875 0 L 18.609375 0 Z M 23.171875 -264.390625 "/></g></g></g><g fill="#a055ff" fill-opacity="1"><g transform="translate(512.398744, 541.9306)"><g><path d="M 53.53125 -142.3125 L 4.5625 -264.390625 L 59.734375 -264.390625 L 88.78125 -192.90625 L 112.28125 -264.390625 L 160.921875 -264.390625 L 114.5625 -126.96875 L 166.140625 0 L 111.296875 0 L 78.984375 -78.984375 L 50.59375 0 L 2.28125 0 Z M 53.53125 -142.3125 "/></g></g></g></svg>